<svg width="32" height="32" viewBox="0 0 32 32" fill="none" xmlns="http://www.w3.org/2000/svg">
<g clip-path="url(#clip0_319_2)">
<path d="M26.6157 8.82046L16.1622 4.55178C16.0787 4.51767 15.9862 4.51228 15.8993 4.53647C15.8123 4.56065 15.7359 4.61304 15.682 4.68539L8.7921 13.9331C8.7543 13.9838 8.72885 14.0426 8.71776 14.1049C8.70667 14.1672 8.71024 14.2312 8.72821 14.2918C8.74617 14.3525 8.77802 14.4081 8.82123 14.4543C8.86445 14.5005 8.91783 14.5359 8.97715 14.5579L11.9466 15.6566C12.2244 15.7593 12.3028 16.1151 12.0938 16.325L8.86361 19.5733C8.64626 19.7919 8.74145 20.1634 9.03721 20.2504L10.9477 20.8128C11.2438 20.9 11.3389 21.2723 11.1206 21.4907L6.03265 26.5836C5.71434 26.9021 6.07261 27.4251 6.48455 27.2434L6.75982 27.1221L24.1996 17.0183C24.4917 16.8492 24.4625 16.4184 24.1505 16.2901L21.1598 15.0588C20.8788 14.9431 20.8192 14.5714 21.0498 14.3737L26.7268 9.50621C26.9579 9.30793 26.8975 8.93554 26.6157 8.82046Z" fill="#EAB308"/>
</g>
<defs>
<clipPath id="clip0_319_2">
<rect width="31.88" height="32" fill="white"/>
</clipPath>
</defs>
</svg>
